.
..............................Site Info...........................

 -   http://www.scenetime.com  *_*   


Scenetime .Always on time . friendly online private torrent community ..

     We care to share . Join us on  http://www.scenetime.com 

    Be the first to get new release at  http://www.scenetime.com

        Seed back for speed


...................................NFO:.................................................General
Complete name                    : Piled Higher And Deeper - PHD comics moviePiled Higher And Deeper - PHD comics movie.mp4
Format                           : MPEG-4
Format profile                   : Base Media
Codec ID                         : isom
File size                        : 991 MiB
Duration                         : 1h 5mn
Overall bit rate                 : 2 129 Kbps
Encoded date                     : UTC 2012-04-02 23:08:37
Tagged date                      : UTC 2012-04-03 23:10:27

Video
ID                               : 1
Format                           : AVC
Format/Info                      : Advanced Video Codec
Format profile                   : High@L3.1
Format settings, CABAC           : Yes
Format settings, ReFrames        : 4 frames
Codec ID                         : avc1
Codec ID/Info                    : Advanced Video Coding
Duration                         : 1h 5mn
Bit rate mode                    : Variable
Bit rate                         : 2 007 Kbps
Maximum bit rate                 : 5 865 Kbps
Width                            : 1 280 pixels
Height                           : 720 pixels
Display aspect ratio             : 16:9
Frame rate mode                  : Constant
Frame rate                       : 23.976 fps
Color space                      : YUV
Chroma subsampling               : 4:2:0
Bit depth                        : 8 bits
Scan type                        : Progressive
Bits/(Pixel*Frame)               : 0.091
Stream size                      : 935 MiB (94%)
Writing library                  : Vimeo Encoder
Encoded date                     : UTC 2012-04-02 23:08:37
Tagged date                      : UTC 2012-04-02 23:10:20

Audio
ID                               : 2
Format                           : AAC
Format/Info                      : Advanced Audio Codec
Format version                   : Version 4
Format profile                   : LC
Codec ID                         : 40
Duration                         : 1h 5mn
Bit rate mode                    : Variable
Bit rate                         : 118 Kbps
Maximum bit rate                 : 165 Kbps
Channel(s)                       : 2 channels
Channel positions                : Front: L R
Sampling rate                    : 44.1 KHz
Stream size                      : 54.8 MiB (6%)
Encoded date                     : UTC 2012-04-02 23:09:00
Tagged date                      : UTC 2012-04-02 23:10:20